<?xml version="1.0" encoding="us-ascii" standalone="no"?><svg xmlns="http://www.w3.org/2000/svg" xmlns:xlink="http://www.w3.org/1999/xlink" contentStyleType="text/css" height="793px" preserveAspectRatio="none" style="width:2108px;height:793px;background:#FFFFFF;" version="1.1" viewBox="0 0 2108 793" width="2108px" zoomAndPan="magnify"><defs/><g><ellipse cx="1079" cy="20" fill="#222222" rx="10" ry="10" style="stroke:#222222;stroke-width:1.0;"/><rect fill="#F1F1F1" height="33.9688" rx="12.5" ry="12.5" style="stroke:#181818;stroke-width:0.5;" width="211" x="973.5" y="98.4023"/><text fill="#000000" font-family="sans-serif" font-size="12" lengthAdjust="spacing" textLength="191" x="983.5" y="119.541">obj['values'].retrasoEnvio = X1</text><rect fill="#F1F1F1" height="33.9688" rx="12.5" ry="12.5" style="stroke:#181818;stroke-width:0.5;" width="203" x="977.5" y="152.3711"/><text fill="#000000" font-family="sans-serif" font-size="12" lengthAdjust="spacing" textLength="183" x="987.5" y="173.5098">obj['values'].retrasoPago = 0</text><polygon fill="#F1F1F1" points="690,206.3398,835,206.3398,847,218.3398,835,230.3398,690,230.3398,678,218.3398,690,206.3398" style="stroke:#181818;stroke-width:0.5;"/><text fill="#000000" font-family="sans-serif" font-size="11" lengthAdjust="spacing" textLength="11" x="766.5" y="240.5503">S&#237;</text><text fill="#000000" font-family="sans-serif" font-size="11" lengthAdjust="spacing" textLength="145" x="690" y="222.1479">obj['values'].pagosPedido</text><rect fill="#F1F1F1" height="33.9688" rx="12.5" ry="12.5" style="stroke:#181818;stroke-width:0.5;" width="242" x="641.5" y="262.0503"/><text fill="#000000" font-family="sans-serif" font-size="12" lengthAdjust="spacing" textLength="222" x="651.5" y="283.189">obj['values'].pagosAcumulados = M</text><rect fill="#F1F1F1" height="103.8125" rx="12.5" ry="12.5" style="stroke:#181818;stroke-width:0.5;" width="517" x="504" y="331.019"/><text fill="#000000" font-family="sans-serif" font-size="12" lengthAdjust="spacing" textLength="257" x="514" y="352.1577">obj['values'].progreso = ElementEstado1</text><text fill="#000000" font-family="sans-serif" font-size="12" lengthAdjust="spacing" textLength="57" x="514" y="366.1265">else (No)</text><text fill="#000000" font-family="sans-serif" font-size="12" lengthAdjust="spacing" textLength="261" x="514" y="380.0952">:obj['values'].progreso = ElementEstado7</text><text fill="#000000" font-family="sans-serif" font-size="12" lengthAdjust="spacing" textLength="31" x="514" y="394.064">endif</text><text fill="#000000" font-family="sans-serif" font-size="12" lengthAdjust="spacing" textLength="497" x="514" y="408.0327">elseif (obj['values'].fechaEnvio &amp;&amp; obj['values'].estado != 'cancelado') then (S&#237;)</text><text fill="#000000" font-family="sans-serif" font-size="12" lengthAdjust="spacing" textLength="195" x="514" y="422.0015">:obj['values'].retrasoEnvio = X2</text><rect fill="#F1F1F1" height="33.9688" rx="12.5" ry="12.5" style="stroke:#181818;stroke-width:0.5;" width="210" x="657.5" y="469.8315"/><text fill="#000000" font-family="sans-serif" font-size="12" lengthAdjust="spacing" textLength="190" x="667.5" y="490.9702">obj['values'].retrasoPago = X3</text><polygon fill="#F1F1F1" points="32,524.5737,387,524.5737,399,536.5737,387,548.5737,32,548.5737,20,536.5737,32,524.5737" style="stroke:#181818;stroke-width:0.5;"/><text fill="#000000" font-family="sans-serif" font-size="11" lengthAdjust="spacing" textLength="11" x="213.5" y="558.7842">S&#237;</text><text fill="#000000" font-family="sans-serif" font-size="11" lengthAdjust="spacing" textLength="355" x="32" y="540.3818">obj['values'].pagosPedido &amp;&amp; obj['values'].retrasoPago &lt;= 10</text><rect fill="#F1F1F1" height="33.9688" rx="12.5" ry="12.5" style="stroke:#181818;stroke-width:0.5;" width="369" x="25" y="580.2842"/><text fill="#000000" font-family="sans-serif" font-size="12" lengthAdjust="spacing" textLength="349" x="35" y="601.4229">let arrayPagos = JSON.parse(obj['values'].pagosPedido)</text><rect fill="#F1F1F1" height="47.9375" rx="12.5" ry="12.5" style="stroke:#181818;stroke-width:0.5;" width="281" x="69" y="649.2529"/><text fill="#000000" font-family="sans-serif" font-size="12" lengthAdjust="spacing" textLength="230" x="79" y="670.3916">obj['values'].pagosAcumulados = M3</text><text fill="#000000" font-family="sans-serif" font-size="12" lengthAdjust="spacing" textLength="261" x="79" y="684.3604">:obj['values'].progreso = ElementEstado2</text><polygon fill="#F1F1F1" points="431,524.5737,786,524.5737,798,536.5737,786,548.5737,431,548.5737,419,536.5737,431,524.5737" style="stroke:#181818;stroke-width:0.5;"/><text fill="#000000" font-family="sans-serif" font-size="11" lengthAdjust="spacing" textLength="11" x="612.5" y="558.7842">S&#237;</text><text fill="#000000" font-family="sans-serif" font-size="11" lengthAdjust="spacing" textLength="355" x="431" y="540.3818">obj['values'].pagosPedido &amp;&amp; obj['values'].retrasoPago &lt;= 30</text><rect fill="#F1F1F1" height="33.9688" rx="12.5" ry="12.5" style="stroke:#181818;stroke-width:0.5;" width="277" x="470" y="580.2842"/><text fill="#000000" font-family="sans-serif" font-size="12" lengthAdjust="spacing" textLength="257" x="480" y="601.4229">obj['values'].progreso = ElementEstado3</text><polygon fill="#F1F1F1" points="830,524.5737,1196,524.5737,1208,536.5737,1196,548.5737,830,548.5737,818,536.5737,830,524.5737" style="stroke:#181818;stroke-width:0.5;"/><text fill="#000000" font-family="sans-serif" font-size="11" lengthAdjust="spacing" textLength="11" x="1017" y="558.7842">S&#237;</text><text fill="#000000" font-family="sans-serif" font-size="11" lengthAdjust="spacing" textLength="366" x="830" y="540.3818">!(obj['values'].pagosPedido) &amp;&amp; obj['values'].retrasoPago &lt;= 60</text><rect fill="#F1F1F1" height="33.9688" rx="12.5" ry="12.5" style="stroke:#181818;stroke-width:0.5;" width="277" x="874.5" y="580.2842"/><text fill="#000000" font-family="sans-serif" font-size="12" lengthAdjust="spacing" textLength="257" x="884.5" y="601.4229">obj['values'].progreso = ElementEstado3</text><rect fill="#F1F1F1" height="33.9688" rx="12.5" ry="12.5" style="stroke:#181818;stroke-width:0.5;" width="277" x="1218" y="618.3506"/><text fill="#000000" font-family="sans-serif" font-size="12" lengthAdjust="spacing" textLength="257" x="1228" y="639.4893">obj['values'].progreso = ElementEstado4</text><polygon fill="#F1F1F1" points="1670.5,206.3398,1870.5,206.3398,1882.5,218.3398,1870.5,230.3398,1670.5,230.3398,1658.5,218.3398,1670.5,206.3398" style="stroke:#181818;stroke-width:0.5;"/><text fill="#000000" font-family="sans-serif" font-size="11" lengthAdjust="spacing" textLength="11" x="1774.5" y="240.5503">S&#237;</text><text fill="#000000" font-family="sans-serif" font-size="11" lengthAdjust="spacing" textLength="200" x="1670.5" y="222.1479">obj['values'].estado == 'cancelado'</text><rect fill="#F1F1F1" height="145.7188" rx="12.5" ry="12.5" style="stroke:#181818;stroke-width:0.5;" width="531" x="1505" y="310.4526"/><text fill="#000000" font-family="sans-serif" font-size="12" lengthAdjust="spacing" textLength="191" x="1515" y="331.5913">obj['values'].retrasoEnvio = X4</text><text fill="#000000" font-family="sans-serif" font-size="12" lengthAdjust="spacing" textLength="194" x="1515" y="345.5601">:obj['values'].retrasoPago = X5</text><text fill="#000000" font-family="sans-serif" font-size="12" lengthAdjust="spacing" textLength="261" x="1515" y="359.5288">:obj['values'].progreso = ElementEstado5</text><text fill="#000000" font-family="sans-serif" font-size="12" lengthAdjust="spacing" textLength="195" x="1515" y="373.4976">:obj['values'].retrasoEnvio = X6</text><text fill="#000000" font-family="sans-serif" font-size="12" lengthAdjust="spacing" textLength="234" x="1515" y="387.4663">:obj['values'].pagosAcumulados = M2</text><text fill="#000000" font-family="sans-serif" font-size="12" lengthAdjust="spacing" textLength="261" x="1515" y="401.4351">:obj['values'].progreso = ElementEstado6</text><text fill="#000000" font-family="sans-serif" font-size="12" lengthAdjust="spacing" textLength="31" x="1515" y="415.4038">endif</text><text fill="#000000" font-family="sans-serif" font-size="12" lengthAdjust="spacing" textLength="26" x="1515" y="429.3726">else</text><text fill="#000000" font-family="sans-serif" font-size="12" lengthAdjust="spacing" textLength="511" x="1515" y="443.3413">:alert('si ves esta alerta, revisa el estado del pedido para implementar codigo!!!')</text><polygon fill="#F1F1F1" points="1704,262.0503,1837,262.0503,1849,274.0503,1837,286.0503,1704,286.0503,1692,274.0503,1704,262.0503" style="stroke:#181818;stroke-width:0.5;"/><text fill="#000000" font-family="sans-serif" font-size="11" lengthAdjust="spacing" textLength="11" x="1774.5" y="296.2607">S&#237;</text><text fill="#000000" font-family="sans-serif" font-size="11" lengthAdjust="spacing" textLength="133" x="1704" y="277.8584">obj['values'].fechaEnvio</text><polygon fill="#F1F1F1" points="1770.5,480.5737,1782.5,492.5737,1770.5,504.5737,1758.5,492.5737,1770.5,480.5737" style="stroke:#181818;stroke-width:0.5;"/><polygon fill="#F1F1F1" points="990.5,50,1167.5,50,1179.5,62,1167.5,74,990.5,74,978.5,62,990.5,50" style="stroke:#181818;stroke-width:0.5;"/><text fill="#000000" font-family="sans-serif" font-size="11" lengthAdjust="spacing" textLength="11" x="1083" y="84.2104">S&#237;</text><text fill="#000000" font-family="sans-serif" font-size="11" lengthAdjust="spacing" textLength="177" x="990.5" y="65.8081">obj['values'].estado == 'nuevo'</text><polygon fill="#F1F1F1" points="1079,757.1904,1091,769.1904,1079,781.1904,1067,769.1904,1079,757.1904" style="stroke:#181818;stroke-width:0.5;"/><line style="stroke:#181818;stroke-width:1.0;" x1="1079" x2="1079" y1="132.3711" y2="152.3711"/><polygon fill="#181818" points="1075,142.3711,1079,152.3711,1083,142.3711,1079,146.3711" style="stroke:#181818;stroke-width:1.0;"/><line style="stroke:#181818;stroke-width:1.0;" x1="762.5" x2="762.5" y1="296.019" y2="331.019"/><polygon fill="#181818" points="758.5,321.019,762.5,331.019,766.5,321.019,762.5,325.019" style="stroke:#181818;stroke-width:1.0;"/><line style="stroke:#181818;stroke-width:1.0;" x1="762.5" x2="762.5" y1="434.8315" y2="469.8315"/><polygon fill="#181818" points="758.5,459.8315,762.5,469.8315,766.5,459.8315,762.5,463.8315" style="stroke:#181818;stroke-width:1.0;"/><line style="stroke:#181818;stroke-width:1.0;" x1="209.5" x2="209.5" y1="614.2529" y2="649.2529"/><polygon fill="#181818" points="205.5,639.2529,209.5,649.2529,213.5,639.2529,209.5,643.2529" style="stroke:#181818;stroke-width:1.0;"/><line style="stroke:#181818;stroke-width:1.0;" x1="209.5" x2="209.5" y1="548.5737" y2="580.2842"/><polygon fill="#181818" points="205.5,570.2842,209.5,580.2842,213.5,570.2842,209.5,574.2842" style="stroke:#181818;stroke-width:1.0;"/><line style="stroke:#181818;stroke-width:1.0;" x1="209.5" x2="209.5" y1="697.1904" y2="717.1904"/><polygon fill="#181818" points="205.5,707.1904,209.5,717.1904,213.5,707.1904,209.5,711.1904" style="stroke:#181818;stroke-width:1.0;"/><line style="stroke:#181818;stroke-width:1.0;" x1="608.5" x2="608.5" y1="548.5737" y2="580.2842"/><polygon fill="#181818" points="604.5,570.2842,608.5,580.2842,612.5,570.2842,608.5,574.2842" style="stroke:#181818;stroke-width:1.0;"/><line style="stroke:#181818;stroke-width:1.0;" x1="608.5" x2="608.5" y1="614.2529" y2="717.1904"/><polygon fill="#181818" points="604.5,707.1904,608.5,717.1904,612.5,707.1904,608.5,711.1904" style="stroke:#181818;stroke-width:1.0;"/><line style="stroke:#181818;stroke-width:1.0;" x1="1013" x2="1013" y1="548.5737" y2="580.2842"/><polygon fill="#181818" points="1009,570.2842,1013,580.2842,1017,570.2842,1013,574.2842" style="stroke:#181818;stroke-width:1.0;"/><line style="stroke:#181818;stroke-width:1.0;" x1="1013" x2="1013" y1="614.2529" y2="717.1904"/><polygon fill="#181818" points="1009,707.1904,1013,717.1904,1017,707.1904,1013,711.1904" style="stroke:#181818;stroke-width:1.0;"/><line style="stroke:#181818;stroke-width:1.0;" x1="399" x2="419" y1="536.5737" y2="536.5737"/><polygon fill="#181818" points="409,532.5737,419,536.5737,409,540.5737,413,536.5737" style="stroke:#181818;stroke-width:1.0;"/><line style="stroke:#181818;stroke-width:1.0;" x1="798" x2="818" y1="536.5737" y2="536.5737"/><polygon fill="#181818" points="808,532.5737,818,536.5737,808,540.5737,812,536.5737" style="stroke:#181818;stroke-width:1.0;"/><line style="stroke:#181818;stroke-width:1.0;" x1="762.5" x2="762.5" y1="503.8003" y2="509.5737"/><line style="stroke:#181818;stroke-width:1.0;" x1="762.5" x2="209.5" y1="509.5737" y2="509.5737"/><line style="stroke:#181818;stroke-width:1.0;" x1="209.5" x2="209.5" y1="509.5737" y2="524.5737"/><polygon fill="#181818" points="205.5,514.5737,209.5,524.5737,213.5,514.5737,209.5,518.5737" style="stroke:#181818;stroke-width:1.0;"/><line style="stroke:#181818;stroke-width:1.0;" x1="1208" x2="1356.5" y1="536.5737" y2="536.5737"/><line style="stroke:#181818;stroke-width:1.0;" x1="1356.5" x2="1356.5" y1="536.5737" y2="618.3506"/><polygon fill="#181818" points="1352.5,608.3506,1356.5,618.3506,1360.5,608.3506,1356.5,612.3506" style="stroke:#181818;stroke-width:1.0;"/><line style="stroke:#181818;stroke-width:1.0;" x1="1356.5" x2="1356.5" y1="652.3193" y2="717.1904"/><polygon fill="#181818" points="1352.5,707.1904,1356.5,717.1904,1360.5,707.1904,1356.5,711.1904" style="stroke:#181818;stroke-width:1.0;"/><line style="stroke:#181818;stroke-width:1.0;" x1="209.5" x2="1356.5" y1="717.1904" y2="717.1904"/><line style="stroke:#181818;stroke-width:1.0;" x1="1770.5" x2="1770.5" y1="286.0503" y2="310.4526"/><polygon fill="#181818" points="1766.5,300.4526,1770.5,310.4526,1774.5,300.4526,1770.5,304.4526" style="stroke:#181818;stroke-width:1.0;"/><line style="stroke:#181818;stroke-width:1.0;" x1="1849" x2="2046" y1="274.0503" y2="274.0503"/><polygon fill="#181818" points="2042,373.312,2046,383.312,2050,373.312,2046,377.312" style="stroke:#181818;stroke-width:1.0;"/><line style="stroke:#181818;stroke-width:1.0;" x1="2046" x2="2046" y1="274.0503" y2="492.5737"/><line style="stroke:#181818;stroke-width:1.0;" x1="2046" x2="1782.5" y1="492.5737" y2="492.5737"/><polygon fill="#181818" points="1792.5,488.5737,1782.5,492.5737,1792.5,496.5737,1788.5,492.5737" style="stroke:#181818;stroke-width:1.0;"/><line style="stroke:#181818;stroke-width:1.0;" x1="1770.5" x2="1770.5" y1="456.1714" y2="480.5737"/><polygon fill="#181818" points="1766.5,470.5737,1770.5,480.5737,1774.5,470.5737,1770.5,474.5737" style="stroke:#181818;stroke-width:1.0;"/><line style="stroke:#181818;stroke-width:1.0;" x1="762.5" x2="762.5" y1="230.3398" y2="262.0503"/><polygon fill="#181818" points="758.5,252.0503,762.5,262.0503,766.5,252.0503,762.5,256.0503" style="stroke:#181818;stroke-width:1.0;"/><line style="stroke:#181818;stroke-width:1.0;" x1="762.5" x2="762.5" y1="717.1904" y2="737.1904"/><polygon fill="#181818" points="758.5,727.1904,762.5,737.1904,766.5,727.1904,762.5,731.1904" style="stroke:#181818;stroke-width:1.0;"/><line style="stroke:#181818;stroke-width:1.0;" x1="1770.5" x2="1770.5" y1="230.3398" y2="262.0503"/><polygon fill="#181818" points="1766.5,252.0503,1770.5,262.0503,1774.5,252.0503,1770.5,256.0503" style="stroke:#181818;stroke-width:1.0;"/><line style="stroke:#181818;stroke-width:1.0;" x1="1770.5" x2="1770.5" y1="504.5737" y2="737.1904"/><polygon fill="#181818" points="1766.5,727.1904,1770.5,737.1904,1774.5,727.1904,1770.5,731.1904" style="stroke:#181818;stroke-width:1.0;"/><line style="stroke:#181818;stroke-width:1.0;" x1="847" x2="1658.5" y1="218.3398" y2="218.3398"/><polygon fill="#181818" points="1648.5,214.3398,1658.5,218.3398,1648.5,222.3398,1652.5,218.3398" style="stroke:#181818;stroke-width:1.0;"/><line style="stroke:#181818;stroke-width:1.0;" x1="1079" x2="1079" y1="186.3398" y2="191.3398"/><line style="stroke:#181818;stroke-width:1.0;" x1="1079" x2="762.5" y1="191.3398" y2="191.3398"/><line style="stroke:#181818;stroke-width:1.0;" x1="762.5" x2="762.5" y1="191.3398" y2="206.3398"/><polygon fill="#181818" points="758.5,196.3398,762.5,206.3398,766.5,196.3398,762.5,200.3398" style="stroke:#181818;stroke-width:1.0;"/><line style="stroke:#181818;stroke-width:1.0;" x1="1882.5" x2="2064" y1="218.3398" y2="218.3398"/><line style="stroke:#181818;stroke-width:1.0;" x1="2064" x2="2064" y1="218.3398" y2="737.1904"/><polygon fill="#181818" points="2060,727.1904,2064,737.1904,2068,727.1904,2064,731.1904" style="stroke:#181818;stroke-width:1.0;"/><line style="stroke:#181818;stroke-width:1.0;" x1="762.5" x2="2064" y1="737.1904" y2="737.1904"/><line style="stroke:#181818;stroke-width:1.0;" x1="1079" x2="1079" y1="74" y2="98.4023"/><polygon fill="#181818" points="1075,88.4023,1079,98.4023,1083,88.4023,1079,92.4023" style="stroke:#181818;stroke-width:1.0;"/><line style="stroke:#181818;stroke-width:1.0;" x1="1179.5" x2="2082" y1="62" y2="62"/><polygon fill="#181818" points="2078,454.9097,2082,464.9097,2086,454.9097,2082,458.9097" style="stroke:#181818;stroke-width:1.0;"/><line style="stroke:#181818;stroke-width:1.0;" x1="2082" x2="2082" y1="62" y2="769.1904"/><line style="stroke:#181818;stroke-width:1.0;" x1="2082" x2="1091" y1="769.1904" y2="769.1904"/><polygon fill="#181818" points="1101,765.1904,1091,769.1904,1101,773.1904,1097,769.1904" style="stroke:#181818;stroke-width:1.0;"/><line style="stroke:#181818;stroke-width:1.0;" x1="1079" x2="1079" y1="737.1904" y2="757.1904"/><polygon fill="#181818" points="1075,747.1904,1079,757.1904,1083,747.1904,1079,751.1904" style="stroke:#181818;stroke-width:1.0;"/><line style="stroke:#181818;stroke-width:1.0;" x1="1079" x2="1079" y1="30" y2="50"/><polygon fill="#181818" points="1075,40,1079,50,1083,40,1079,44" style="stroke:#181818;stroke-width:1.0;"/><!--SRC=[fPF1Re9048RlFCLm4KYQHaLf8lNG0vScjIPUJ9eUfZ3gDWjhTXUIFbIVeY_M1KogKM5DRsJvT_wPR_vL6gLss0PyyV7vvbN8IrBU-pqfZPc0-HoyegHAU07e7HNWhtw-0sTsAfQa9IgH51KpLs0zYgyebhYj1SFuWkFU_5DBobWckhmQsLDQvYKt3IfJxILspaHIR2MfsYlXb5EXasQUaKDS4VWB4TXUUN2eoDYckNZUz8RI7RPp3mPm4Q5h4APOf5JtUnF6SG_6TTZ3yRodumAFSnWDJ_lXf06bnAzQKBDzNhqkJ4Mfg6DRiSMEGblUPkZBg6-PAnnsHkYATVXdxNQ5iyyz-e-xhNmITmRpwFrU2LzNc6z9wQGdf5FRYQPzJf55piQsRj4HFcU6dAJsFSMW8WKrF6YEy0uaLKmX48S3qynyxjiScfU1mF9zMnWbf29ZM-6whXSSzlCB]--></g></svg>