<?xml version="1.0" encoding="utf-8"?>
<!-- Generator: Adobe Illustrator 24.0.0, SVG Export Plug-In . SVG Version: 6.00 Build 0)  -->
<svg version="1.0" xmlns="http://www.w3.org/2000/svg" xmlns:xlink="http://www.w3.org/1999/xlink" x="0px" y="0px"
	 viewBox="0 0 274 58" style="enable-background:new 0 0 274 58;" xml:space="preserve">
<style type="text/css">
	.st0{fill:#999999;}
</style>
<g id="Capa_1">
	<g>
		<path class="st0" d="M58.05,39.92V11.1h3.41v11.84h13.39V11.1h3.41v28.82h-3.41V26.34H61.46v13.59H58.05z"/>
		<path class="st0" d="M81.17,39.92V11.1H99.8v3.4H84.58v8.83h14.26v3.38H84.58v9.81h15.82v3.4H81.17z"/>
		<path class="st0" d="M102.85,39.92V11.1h3.41v28.82H102.85z"/>
		<path class="st0" d="M109.39,39.92V11.1h3.5l13.54,22.63V11.1h3.27v28.82h-3.5l-13.54-22.65v22.65H109.39z"/>
		<path class="st0" d="M130.52,39.92v-3.54l13.2-18.46c0.94-1.31,1.83-2.45,2.67-3.42h-14.38v-3.4h18.46v3.4l-14.47,20l-1.56,2.03
			h16.45v3.4H130.52z"/>
		<path class="st0" d="M157.72,30.66l3.22-0.31c0.15,1.44,0.51,2.63,1.06,3.55c0.56,0.92,1.42,1.67,2.59,2.24
			c1.17,0.57,2.49,0.85,3.96,0.85c1.3,0,2.45-0.22,3.45-0.65c1-0.43,1.74-1.03,2.22-1.78c0.49-0.75,0.73-1.58,0.73-2.47
			c0-0.9-0.23-1.69-0.7-2.37s-1.24-1.24-2.32-1.7c-0.69-0.3-2.22-0.77-4.59-1.41s-4.03-1.24-4.97-1.8
			c-1.23-0.72-2.15-1.62-2.75-2.68s-0.91-2.26-0.91-3.59c0-1.46,0.37-2.81,1.11-4.08c0.74-1.26,1.82-2.23,3.23-2.88
			s2.99-0.98,4.73-0.98c1.91,0,3.59,0.34,5.05,1.03c1.46,0.69,2.58,1.7,3.37,3.04c0.79,1.34,1.21,2.85,1.27,4.54l-3.27,0.28
			c-0.18-1.82-0.77-3.2-1.78-4.13s-2.51-1.4-4.49-1.4c-2.06,0-3.57,0.42-4.51,1.27c-0.94,0.85-1.42,1.86-1.42,3.06
			c0,1.04,0.33,1.89,1,2.56c0.66,0.67,2.37,1.35,5.14,2.05c2.77,0.7,4.67,1.31,5.7,1.84c1.5,0.77,2.61,1.75,3.32,2.94
			c0.71,1.19,1.07,2.55,1.07,4.1c0,1.53-0.39,2.98-1.18,4.33c-0.79,1.36-1.91,2.41-3.38,3.17c-1.47,0.75-3.13,1.13-4.97,1.13
			c-2.33,0-4.29-0.38-5.86-1.14c-1.58-0.76-2.81-1.9-3.71-3.43S157.77,32.59,157.72,30.66z"/>
		<path class="st0" d="M180.05,39.92V11.1h9.72c1.71,0,3.02,0.09,3.92,0.28c1.27,0.24,2.33,0.69,3.18,1.35
			c0.86,0.66,1.54,1.59,2.07,2.78s0.78,2.5,0.78,3.93c0,2.45-0.7,4.53-2.09,6.22c-1.39,1.7-3.91,2.55-7.56,2.55h-6.61v11.72H180.05z
			 M183.46,24.81h6.66c2.2,0,3.77-0.46,4.69-1.38c0.93-0.92,1.39-2.21,1.39-3.87c0-1.21-0.27-2.24-0.82-3.1s-1.26-1.43-2.15-1.7
			c-0.57-0.17-1.63-0.26-3.18-0.26h-6.59V24.81z"/>
		<path class="st0" d="M200.18,25.89c0-4.78,1.15-8.53,3.45-11.24c2.3-2.71,5.26-4.06,8.89-4.06c2.38,0,4.52,0.64,6.43,1.91
			c1.91,1.27,3.37,3.04,4.37,5.32c1,2.27,1.5,4.85,1.5,7.74c0,2.92-0.53,5.54-1.58,7.84c-1.05,2.31-2.55,4.05-4.48,5.24
			c-1.93,1.19-4.02,1.78-6.26,1.78c-2.43,0-4.59-0.66-6.5-1.97c-1.91-1.31-3.36-3.1-4.34-5.37
			C200.67,30.81,200.18,28.42,200.18,25.89z M203.7,25.95c0,3.47,0.83,6.21,2.5,8.21s3.76,3,6.28,3c2.57,0,4.68-1.01,6.34-3.03
			c1.66-2.02,2.49-4.88,2.49-8.59c0-2.35-0.35-4.39-1.06-6.14c-0.71-1.75-1.75-3.11-3.11-4.07s-2.9-1.44-4.6-1.44
			c-2.41,0-4.49,0.93-6.23,2.78C204.57,18.51,203.7,21.61,203.7,25.95z"/>
		<path class="st0" d="M226.43,39.92V11.1h11.43c2.3,0,4.04,0.26,5.24,0.78c1.2,0.52,2.15,1.43,2.87,2.74s1.07,2.76,1.07,4.35
			c0,2.04-0.59,3.77-1.78,5.17c-1.18,1.4-3.01,2.29-5.48,2.67c0.9,0.49,1.59,0.96,2.06,1.44c1,1.02,1.94,2.3,2.83,3.83l4.48,7.84
			h-4.29l-3.41-6c-1-1.73-1.82-3.05-2.46-3.97s-1.22-1.56-1.73-1.93s-1.03-0.62-1.56-0.77c-0.39-0.09-1.02-0.14-1.9-0.14h-3.96v12.8
			H226.43z M229.84,23.82h7.33c1.56,0,2.78-0.18,3.66-0.54c0.88-0.36,1.55-0.94,2-1.73s0.69-1.65,0.69-2.59
			c0-1.36-0.44-2.48-1.33-3.36c-0.88-0.88-2.28-1.32-4.19-1.32h-8.16V23.82z"/>
		<path class="st0" d="M255.44,39.92V14.5h-8.49v-3.4h20.43v3.4h-8.53v25.42H255.44z"/>
	</g>
</g>
<g id="SAC">
	<g>
		<path class="st0" d="M145.18,52.87c0.47,0.29,1.15,0.53,1.87,0.53c1.07,0,1.69-0.56,1.69-1.38c0-0.76-0.43-1.19-1.52-1.61
			c-1.32-0.47-2.13-1.15-2.13-2.29c0-1.26,1.04-2.19,2.61-2.19c0.83,0,1.43,0.19,1.79,0.4l-0.29,0.85c-0.26-0.14-0.8-0.38-1.54-0.38
			c-1.1,0-1.52,0.66-1.52,1.21c0,0.76,0.49,1.13,1.61,1.56c1.37,0.53,2.06,1.19,2.06,2.37c0,1.25-0.92,2.33-2.83,2.33
			c-0.78,0-1.63-0.23-2.06-0.52L145.18,52.87z"/>
	</g>
	<g>
		<path class="st0" d="M155.1,51.84l-0.84,2.54h-1.08l2.75-8.08h1.26l2.76,8.08h-1.12l-0.86-2.54H155.1z M157.75,51.02l-0.79-2.33
			c-0.18-0.53-0.3-1.01-0.42-1.48h-0.02c-0.12,0.48-0.25,0.97-0.41,1.46l-0.79,2.34H157.75z"/>
	</g>
	<g>
		<path class="st0" d="M170,53.71c-0.38,0.19-1.15,0.38-2.13,0.38c-2.28,0-3.99-1.44-3.99-4.09c0-2.53,1.71-4.25,4.22-4.25
			c1.01,0,1.64,0.22,1.92,0.36l-0.25,0.85c-0.4-0.19-0.96-0.34-1.63-0.34c-1.89,0-3.15,1.21-3.15,3.33c0,1.98,1.14,3.25,3.11,3.25
			c0.64,0,1.28-0.13,1.7-0.34L170,53.71z"/>
	</g>
</g>
<g id="LOGO">
	<path id="XMLID_118_" class="st0" d="M20.7,29.07l8.23-24.25c0.11-0.33,0.42-0.55,0.76-0.55c0.44,0,0.8,0.36,0.8,0.8v26.86
		c0,0.28-0.07,0.56-0.22,0.8c-0.44,0.77-1.43,1.03-2.2,0.59L20.7,29.07z"/>
	<path id="XMLID_117_" class="st0" d="M19.49,31.17L2.6,50.42c-0.29,0.33-0.26,0.84,0.07,1.14c0.26,0.23,0.63,0.26,0.93,0.09
		l23.26-13.43c0.77-0.44,1.03-1.43,0.59-2.2c-0.14-0.24-0.34-0.45-0.59-0.59L19.49,31.17z"/>
	<path id="XMLID_116_" class="st0" d="M30.49,50.22l-25.12,5c-0.34,0.07-0.68-0.09-0.85-0.39c-0.22-0.38-0.09-0.88,0.29-1.1
		l23.26-13.43c0.24-0.14,0.52-0.22,0.8-0.22c0.89,0,1.61,0.72,1.61,1.61V50.22z"/>
	<path id="XMLID_115_" class="st0" d="M32.91,50.22l25.12,5c0.44,0.09,0.86-0.2,0.95-0.63c0.07-0.34-0.09-0.68-0.39-0.85
		L35.32,40.31c-0.77-0.44-1.75-0.18-2.2,0.59c-0.14,0.24-0.22,0.52-0.22,0.8V50.22z"/>
	<path id="XMLID_114_" class="st0" d="M36.53,38.22l23.26,13.43c0.38,0.22,0.88,0.09,1.1-0.29c0.17-0.3,0.14-0.67-0.09-0.93
		L43.91,31.17l-7.38,4.26c-0.77,0.44-1.03,1.43-0.59,2.2C36.08,37.87,36.28,38.07,36.53,38.22z"/>
	<path id="XMLID_113_" class="st0" d="M42.7,29.07l-7.38,4.26c-0.24,0.14-0.52,0.22-0.8,0.22c-0.89,0-1.61-0.72-1.61-1.61V5.08
		c0-0.34,0.22-0.65,0.55-0.76c0.42-0.14,0.88,0.08,1.02,0.5L42.7,29.07z"/>
	<g>
	</g>
	<g>
	</g>
	<g>
	</g>
	<g>
	</g>
	<g>
	</g>
	<g>
	</g>
	<g>
	</g>
	<g>
	</g>
	<g>
	</g>
	<g>
	</g>
	<g>
	</g>
</g>
</svg>
