<svg id="Capa_1" data-name="Capa 1" xmlns="http://www.w3.org/2000/svg" viewBox="0 0 92.33 80.3"><defs><style>.cls-1{fill:#b2043e;}</style></defs><title>logo heinz</title><path class="cls-1" d="M29.23,39.35l13-38.22a1.27,1.27,0,0,1,2.47.41V43.87a2.49,2.49,0,0,1-.34,1.27,2.52,2.52,0,0,1-3.46.92Z" transform="translate(-0.4 -0.27)"/><path class="cls-1" d="M27.33,42.64.71,73A1.27,1.27,0,0,0,2.3,74.92L39,53.75a2.53,2.53,0,0,0,.92-3.46,2.49,2.49,0,0,0-.92-.93Z" transform="translate(-0.4 -0.27)"/><path class="cls-1" d="M44.66,72.67,5.08,80.55a1.26,1.26,0,0,1-1.34-.61,1.27,1.27,0,0,1,.46-1.73L40.86,57.05a2.44,2.44,0,0,1,1.27-.34,2.53,2.53,0,0,1,2.53,2.53Z" transform="translate(-0.4 -0.27)"/><path class="cls-1" d="M48.47,72.67l39.58,7.88a1.27,1.27,0,0,0,.88-2.34L52.27,57.05a2.53,2.53,0,0,0-3.46.93,2.43,2.43,0,0,0-.34,1.26Z" transform="translate(-0.4 -0.27)"/><path class="cls-1" d="M54.17,53.75,90.83,74.92a1.26,1.26,0,0,0,1.73-.47A1.28,1.28,0,0,0,92.42,73L65.8,42.64,54.17,49.36a2.54,2.54,0,0,0-.93,3.46A2.59,2.59,0,0,0,54.17,53.75Z" transform="translate(-0.4 -0.27)"/><path class="cls-1" d="M63.9,39.35,52.27,46.06A2.44,2.44,0,0,1,51,46.4a2.53,2.53,0,0,1-2.53-2.53V1.54a1.27,1.27,0,0,1,2.47-.41Z" transform="translate(-0.4 -0.27)"/></svg>