<svg xmlns="http://www.w3.org/2000/svg" viewBox="0 0 92.33 80.3"><title>logo_skieks_morado_claro</title><path class="cls-1" d="M31.23,41.35l13-38.22a1.27,1.27,0,0,1,2.47.41V45.87a2.49,2.49,0,0,1-.34,1.27,2.52,2.52,0,0,1-3.46.92Z" transform="translate(-2.4 -2.27)"/><path class="cls-1" d="M29.33,44.64,2.71,75A1.27,1.27,0,0,0,4.3,76.92L41,55.75a2.53,2.53,0,0,0,.92-3.46,2.49,2.49,0,0,0-.92-.93Z" transform="translate(-2.4 -2.27)"/><path class="cls-1" d="M46.66,74.67,7.08,82.55a1.26,1.26,0,0,1-1.34-.61,1.27,1.27,0,0,1,.46-1.73L42.86,59.05a2.44,2.44,0,0,1,1.27-.34,2.53,2.53,0,0,1,2.53,2.53Z" transform="translate(-2.4 -2.27)"/><path class="cls-1" d="M50.47,74.67l39.58,7.88a1.27,1.27,0,0,0,.88-2.34L54.27,59.05a2.53,2.53,0,0,0-3.46.93,2.43,2.43,0,0,0-.34,1.26Z" transform="translate(-2.4 -2.27)"/><path class="cls-1" d="M56.17,55.75,92.83,76.92a1.26,1.26,0,0,0,1.73-.47A1.28,1.28,0,0,0,94.42,75L67.8,44.64,56.17,51.36a2.54,2.54,0,0,0-.93,3.46A2.59,2.59,0,0,0,56.17,55.75Z" transform="translate(-2.4 -2.27)"/><path class="cls-1" d="M65.9,41.35,54.27,48.06A2.44,2.44,0,0,1,53,48.4a2.53,2.53,0,0,1-2.53-2.53V3.54a1.27,1.27,0,0,1,2.47-.41Z" transform="translate(-2.4 -2.27)"/></svg>